<svg width="223" height="37" viewBox="0 0 223 37" fill="none" xmlns="http://www.w3.org/2000/svg">
<path d="M63.068 21.284C63.62 21.284 64.064 21.452 64.4 21.788C64.736 22.1 64.904 22.52 64.904 23.048V30.788C64.904 31.892 64.76 32.672 64.472 33.128C64.184 33.584 63.596 33.956 62.708 34.244C61.748 34.58 60.632 34.844 59.36 35.036C58.088 35.228 56.864 35.324 55.688 35.324C53.072 35.324 50.804 34.808 48.884 33.776C46.964 32.744 45.488 31.256 44.456 29.312C43.448 27.344 42.944 25.004 42.944 22.292C42.944 19.628 43.448 17.324 44.456 15.38C45.488 13.412 46.94 11.912 48.812 10.88C50.684 9.824 52.892 9.296 55.436 9.296C58.82 9.296 61.592 10.208 63.752 12.032C64.04 12.296 64.244 12.56 64.364 12.824C64.508 13.088 64.58 13.4 64.58 13.76C64.58 14.288 64.436 14.732 64.148 15.092C63.86 15.452 63.512 15.632 63.104 15.632C62.84 15.632 62.6 15.596 62.384 15.524C62.168 15.428 61.916 15.284 61.628 15.092C60.572 14.348 59.588 13.832 58.676 13.544C57.764 13.232 56.732 13.076 55.58 13.076C52.964 13.076 50.984 13.856 49.64 15.416C48.32 16.952 47.66 19.244 47.66 22.292C47.66 28.532 50.396 31.652 55.868 31.652C57.5 31.652 59.132 31.424 60.764 30.968V24.596H56.696C56.12 24.596 55.664 24.452 55.328 24.164C55.016 23.876 54.86 23.468 54.86 22.94C54.86 22.412 55.016 22.004 55.328 21.716C55.664 21.428 56.12 21.284 56.696 21.284H63.068ZM77.3743 16.964C79.8223 16.964 81.6343 17.576 82.8103 18.8C84.0103 20 84.6103 21.836 84.6103 24.308V33.092C84.6103 33.74 84.4183 34.256 84.0343 34.64C83.6503 35 83.1223 35.18 82.4503 35.18C81.8263 35.18 81.3103 34.988 80.9023 34.604C80.5183 34.22 80.3263 33.716 80.3263 33.092V32.3C79.9183 33.236 79.2703 33.968 78.3823 34.496C77.5183 35.024 76.5103 35.288 75.3583 35.288C74.1823 35.288 73.1143 35.048 72.1543 34.568C71.1943 34.088 70.4383 33.428 69.8863 32.588C69.3343 31.748 69.0583 30.812 69.0583 29.78C69.0583 28.484 69.3823 27.464 70.0303 26.72C70.7023 25.976 71.7823 25.436 73.2703 25.1C74.7583 24.764 76.8103 24.596 79.4263 24.596H80.3263V23.768C80.3263 22.592 80.0743 21.74 79.5703 21.212C79.0663 20.66 78.2503 20.384 77.1223 20.384C76.4263 20.384 75.7183 20.492 74.9983 20.708C74.2783 20.9 73.4263 21.188 72.4423 21.572C71.8183 21.884 71.3623 22.04 71.0743 22.04C70.6423 22.04 70.2823 21.884 69.9943 21.572C69.7303 21.26 69.5983 20.852 69.5983 20.348C69.5983 19.94 69.6943 19.592 69.8863 19.304C70.1023 18.992 70.4503 18.704 70.9303 18.44C71.7703 17.984 72.7663 17.624 73.9183 17.36C75.0943 17.096 76.2463 16.964 77.3743 16.964ZM76.2583 32.048C77.4583 32.048 78.4303 31.652 79.1743 30.86C79.9423 30.044 80.3263 29 80.3263 27.728V26.972H79.6783C78.0703 26.972 76.8223 27.044 75.9343 27.188C75.0463 27.332 74.4103 27.584 74.0263 27.944C73.6423 28.304 73.4503 28.796 73.4503 29.42C73.4503 30.188 73.7143 30.824 74.2423 31.328C74.7943 31.808 75.4663 32.048 76.2583 32.048ZM110.1 16.964C112.02 16.964 113.484 17.54 114.492 18.692C115.524 19.82 116.04 21.656 116.04 24.2V33.056C116.04 33.752 115.824 34.292 115.392 34.676C114.984 35.036 114.444 35.216 113.772 35.216C113.124 35.216 112.584 35.036 112.152 34.676C111.744 34.292 111.54 33.752 111.54 33.056V24.2C111.54 22.88 111.3 21.944 110.82 21.392C110.364 20.816 109.656 20.528 108.696 20.528C107.52 20.528 106.584 20.936 105.888 21.752C105.192 22.544 104.844 23.636 104.844 25.028V33.056C104.844 33.752 104.628 34.292 104.196 34.676C103.788 35.036 103.26 35.216 102.612 35.216C101.964 35.216 101.424 35.036 100.992 34.676C100.56 34.292 100.344 33.752 100.344 33.056V24.2C100.344 22.88 100.104 21.944 99.6238 21.392C99.1678 20.816 98.4598 20.528 97.4998 20.528C96.3238 20.528 95.3878 20.936 94.6918 21.752C94.0198 22.544 93.6838 23.636 93.6838 25.028V33.056C93.6838 33.752 93.4678 34.292 93.0358 34.676C92.6038 35.036 92.0638 35.216 91.4158 35.216C90.7678 35.216 90.2278 35.036 89.7958 34.676C89.3878 34.292 89.1838 33.752 89.1838 33.056V19.124C89.1838 18.452 89.3998 17.936 89.8318 17.576C90.2638 17.216 90.8038 17.036 91.4518 17.036C92.0758 17.036 92.5798 17.216 92.9638 17.576C93.3718 17.912 93.5758 18.404 93.5758 19.052V19.916C94.1278 18.956 94.8598 18.224 95.7718 17.72C96.7078 17.216 97.7758 16.964 98.9758 16.964C101.616 16.964 103.38 18.068 104.268 20.276C104.796 19.268 105.576 18.464 106.608 17.864C107.64 17.264 108.804 16.964 110.1 16.964ZM134.545 30.176C134.953 30.176 135.277 30.332 135.517 30.644C135.781 30.956 135.913 31.376 135.913 31.904C135.913 32.648 135.469 33.272 134.581 33.776C133.765 34.232 132.841 34.604 131.809 34.892C130.777 35.156 129.793 35.288 128.857 35.288C126.025 35.288 123.781 34.472 122.125 32.84C120.469 31.208 119.641 28.976 119.641 26.144C119.641 24.344 120.001 22.748 120.721 21.356C121.441 19.964 122.449 18.884 123.745 18.116C125.065 17.348 126.553 16.964 128.209 16.964C129.793 16.964 131.173 17.312 132.349 18.008C133.525 18.704 134.437 19.688 135.085 20.96C135.733 22.232 136.057 23.732 136.057 25.46C136.057 26.492 135.601 27.008 134.689 27.008H124.069C124.213 28.664 124.681 29.888 125.473 30.68C126.265 31.448 127.417 31.832 128.929 31.832C129.697 31.832 130.369 31.736 130.945 31.544C131.545 31.352 132.217 31.088 132.961 30.752C133.681 30.368 134.209 30.176 134.545 30.176ZM128.317 20.132C127.093 20.132 126.109 20.516 125.365 21.284C124.645 22.052 124.213 23.156 124.069 24.596H132.205C132.157 23.132 131.797 22.028 131.125 21.284C130.453 20.516 129.517 20.132 128.317 20.132Z" fill="#F5C518"/>
<path d="M149.232 35.288C147.432 35.288 145.704 35.024 144.048 34.496C142.416 33.944 141.108 33.212 140.124 32.3C139.764 31.964 139.584 31.544 139.584 31.04C139.584 30.704 139.68 30.416 139.872 30.176C140.064 29.912 140.292 29.78 140.556 29.78C140.868 29.78 141.204 29.912 141.564 30.176C143.796 31.904 146.34 32.768 149.196 32.768C151.26 32.768 152.844 32.372 153.948 31.58C155.052 30.788 155.604 29.66 155.604 28.196C155.604 27.356 155.34 26.684 154.812 26.18C154.284 25.652 153.588 25.232 152.724 24.92C151.86 24.608 150.696 24.284 149.232 23.948C147.264 23.492 145.644 23.012 144.372 22.508C143.124 22.004 142.104 21.284 141.312 20.348C140.544 19.412 140.16 18.188 140.16 16.676C140.16 15.236 140.544 13.964 141.312 12.86C142.104 11.732 143.196 10.868 144.588 10.268C146.004 9.644 147.612 9.332 149.412 9.332C151.092 9.332 152.652 9.596 154.092 10.124C155.556 10.628 156.78 11.36 157.764 12.32C158.148 12.704 158.34 13.124 158.34 13.58C158.34 13.916 158.244 14.216 158.052 14.48C157.86 14.72 157.632 14.84 157.368 14.84C157.104 14.84 156.756 14.708 156.324 14.444C155.148 13.484 154.056 12.812 153.048 12.428C152.04 12.044 150.828 11.852 149.412 11.852C147.42 11.852 145.872 12.272 144.768 13.112C143.664 13.928 143.112 15.08 143.112 16.568C143.112 17.84 143.592 18.8 144.552 19.448C145.536 20.072 147.036 20.624 149.052 21.104C151.236 21.632 152.952 22.124 154.2 22.58C155.448 23.012 156.48 23.672 157.296 24.56C158.136 25.448 158.556 26.636 158.556 28.124C158.556 29.54 158.16 30.788 157.368 31.868C156.6 32.948 155.508 33.788 154.092 34.388C152.676 34.988 151.056 35.288 149.232 35.288ZM170.913 32.876C171.753 32.948 172.173 33.332 172.173 34.028C172.173 34.436 172.017 34.748 171.705 34.964C171.417 35.156 170.973 35.228 170.373 35.18L169.401 35.108C167.481 34.964 166.065 34.388 165.153 33.38C164.241 32.372 163.785 30.848 163.785 28.808V19.772H161.373C160.965 19.772 160.641 19.676 160.401 19.484C160.185 19.268 160.077 18.992 160.077 18.656C160.077 18.296 160.185 18.008 160.401 17.792C160.641 17.576 160.965 17.468 161.373 17.468H163.785V13.4C163.785 12.944 163.917 12.596 164.181 12.356C164.445 12.092 164.805 11.96 165.261 11.96C165.693 11.96 166.041 12.092 166.305 12.356C166.569 12.596 166.701 12.944 166.701 13.4V17.468H170.697C171.081 17.468 171.381 17.576 171.597 17.792C171.837 18.008 171.957 18.296 171.957 18.656C171.957 18.992 171.837 19.268 171.597 19.484C171.381 19.676 171.081 19.772 170.697 19.772H166.701V28.952C166.701 30.272 166.965 31.232 167.493 31.832C168.045 32.408 168.861 32.732 169.941 32.804L170.913 32.876ZM182.32 35.252C180.664 35.252 179.2 34.88 177.928 34.136C176.68 33.392 175.708 32.336 175.012 30.968C174.34 29.576 174.004 27.968 174.004 26.144C174.004 24.32 174.34 22.724 175.012 21.356C175.708 19.964 176.68 18.896 177.928 18.152C179.2 17.408 180.664 17.036 182.32 17.036C183.976 17.036 185.44 17.408 186.712 18.152C187.984 18.896 188.956 19.964 189.628 21.356C190.324 22.724 190.672 24.32 190.672 26.144C190.672 27.968 190.324 29.576 189.628 30.968C188.956 32.336 187.984 33.392 186.712 34.136C185.44 34.88 183.976 35.252 182.32 35.252ZM182.32 32.84C184.048 32.84 185.368 32.276 186.28 31.148C187.216 29.996 187.684 28.328 187.684 26.144C187.684 24.008 187.216 22.364 186.28 21.212C185.344 20.036 184.024 19.448 182.32 19.448C180.616 19.448 179.296 20.036 178.36 21.212C177.424 22.364 176.956 24.008 176.956 26.144C176.956 28.304 177.412 29.96 178.324 31.112C179.26 32.264 180.592 32.84 182.32 32.84ZM203.692 17.108C204.7 17.036 205.204 17.444 205.204 18.332C205.204 18.716 205.096 19.028 204.88 19.268C204.664 19.484 204.292 19.616 203.764 19.664L202.684 19.772C201.076 19.916 199.876 20.492 199.084 21.5C198.316 22.484 197.932 23.648 197.932 24.992V33.74C197.932 34.22 197.8 34.58 197.536 34.82C197.272 35.06 196.924 35.18 196.492 35.18C196.06 35.18 195.7 35.06 195.412 34.82C195.148 34.556 195.016 34.196 195.016 33.74V18.548C195.016 18.092 195.16 17.744 195.448 17.504C195.736 17.24 196.084 17.108 196.492 17.108C196.876 17.108 197.2 17.24 197.464 17.504C197.728 17.744 197.86 18.08 197.86 18.512V20.528C198.364 19.472 199.072 18.668 199.984 18.116C200.92 17.564 201.988 17.24 203.188 17.144L203.692 17.108ZM220.928 30.932C221.192 30.932 221.42 31.04 221.612 31.256C221.804 31.472 221.9 31.748 221.9 32.084C221.9 32.684 221.48 33.236 220.64 33.74C219.776 34.244 218.864 34.628 217.904 34.892C216.944 35.132 216.008 35.252 215.096 35.252C212.384 35.252 210.236 34.448 208.652 32.84C207.092 31.232 206.312 29.012 206.312 26.18C206.312 24.38 206.66 22.796 207.356 21.428C208.052 20.036 209.024 18.956 210.272 18.188C211.544 17.42 212.984 17.036 214.592 17.036C216.872 17.036 218.684 17.78 220.028 19.268C221.372 20.756 222.044 22.772 222.044 25.316C222.044 25.796 221.948 26.144 221.756 26.36C221.564 26.576 221.252 26.684 220.82 26.684H209.228C209.444 30.812 211.4 32.876 215.096 32.876C216.032 32.876 216.836 32.756 217.508 32.516C218.18 32.252 218.9 31.904 219.668 31.472C220.292 31.112 220.712 30.932 220.928 30.932ZM214.628 19.304C213.092 19.304 211.856 19.784 210.92 20.744C210.008 21.704 209.468 23.06 209.3 24.812H219.488C219.44 23.036 218.996 21.68 218.156 20.744C217.316 19.784 216.14 19.304 214.628 19.304Z" fill="#F5C518"/>
<path d="M7.40511 0.815821C3.31555 -1.09762 0 0.469895 0 4.31416V32.6831C0 36.5312 3.31555 38.0967 7.40511 36.1851L37.8043 21.9648C41.8952 20.0507 41.8952 16.9495 37.8043 15.0359L7.40511 0.815821Z" fill="#F5C518"/>
</svg>
